<svg xmlns="http://www.w3.org/2000/svg" width="1024" height="1024" viewBox="0 0 1024 1024">
  <defs>
    <filter id="softGlow" x="-60%" y="-60%" width="220%" height="220%">
      <feGaussianBlur stdDeviation="6" result="blur"/>
      <feMerge>
        <feMergeNode in="blur"/>
        <feMergeNode in="SourceGraphic"/>
      </feMerge>
    </filter>

    <linearGradient id="gpText" x1="0" x2="1">
      <stop offset="0%" stop-color="#F7FBFF"/>
      <stop offset="64%" stop-color="#F7FBFF"/>
      <stop offset="78%" stop-color="#2F80FF"/>
      <stop offset="100%" stop-color="#18D7D7"/>
    </linearGradient>
  </defs>

  <rect x="18" y="18" width="988" height="988" rx="92" fill="#061B3D"/>

  
  <path d="
    M 320 250
    C 280 235, 255 200, 252 150
    C 300 207, 355 215, 394 190
    C 430 168, 485 170, 512 218
    C 539 170, 594 168, 630 190
    C 669 215, 724 207, 772 150
    C 769 200, 744 235, 704 250
    L 704 370
    L 650 370
    L 650 270
    C 650 232, 610 225, 580 244
    C 548 264, 538 297, 538 340
    L 486 340
    C 486 297, 476 264, 444 244
    C 414 225, 374 232, 374 270
    L 374 370
    L 320 370
    Z"
    fill="#F7FBFF"
  />


  <circle cx="440.0" cy="268.0" r="2.1" fill="#8FB2E8" opacity="0.06" />
<circle cx="458.0" cy="268.0" r="2.2" fill="#8FB2E8" opacity="0.09" />
<circle cx="476.0" cy="268.0" r="2.2" fill="#8FB2E8" opacity="0.10" />
<circle cx="494.0" cy="268.0" r="2.2" fill="#8FB2E8" opacity="0.11" />
<circle cx="512.0" cy="268.0" r="2.2" fill="#8FB2E8" opacity="0.11" />
<circle cx="530.0" cy="268.0" r="2.2" fill="#8FB2E8" opacity="0.11" />
<circle cx="548.0" cy="268.0" r="2.2" fill="#8FB2E8" opacity="0.10" />
<circle cx="566.0" cy="268.0" r="2.2" fill="#8FB2E8" opacity="0.09" />
<circle cx="584.0" cy="268.0" r="2.1" fill="#8FB2E8" opacity="0.06" />
<circle cx="386.0" cy="286.0" r="2.1" fill="#8FB2E8" opacity="0.06" />
<circle cx="404.0" cy="286.0" r="2.2" fill="#8FB2E8" opacity="0.10" />
<circle cx="422.0" cy="286.0" r="2.3" fill="#8FB2E8" opacity="0.13" />
<circle cx="440.0" cy="286.0" r="2.4" fill="#8FB2E8" opacity="0.16" />
<circle cx="458.0" cy="286.0" r="2.4" fill="#8FB2E8" opacity="0.18" />
<circle cx="476.0" cy="286.0" r="2.4" fill="#8FB2E8" opacity="0.20" />
<circle cx="494.0" cy="286.0" r="2.5" fill="#8FB2E8" opacity="0.21" />
<circle cx="512.0" cy="286.0" r="2.5" fill="#8FB2E8" opacity="0.21" />
<circle cx="530.0" cy="286.0" r="2.5" fill="#8FB2E8" opacity="0.21" />
<circle cx="548.0" cy="286.0" r="2.4" fill="#8FB2E8" opacity="0.20" />
<circle cx="566.0" cy="286.0" r="2.4" fill="#8FB2E8" opacity="0.18" />
<circle cx="584.0" cy="286.0" r="2.4" fill="#8FB2E8" opacity="0.16" />
<circle cx="602.0" cy="286.0" r="2.3" fill="#8FB2E8" opacity="0.13" />
<circle cx="620.0" cy="286.0" r="2.2" fill="#8FB2E8" opacity="0.10" />
<circle cx="638.0" cy="286.0" r="2.1" fill="#8FB2E8" opacity="0.06" />
<circle cx="368.0" cy="304.0" r="2.2" fill="#8FB2E8" opacity="0.10" />
<circle cx="386.0" cy="304.0" r="2.3" fill="#8FB2E8" opacity="0.15" />
<circle cx="404.0" cy="304.0" r="2.4" fill="#8FB2E8" opacity="0.19" />
<circle cx="422.0" cy="304.0" r="2.5" fill="#8FB2E8" opacity="0.22" />
<circle cx="440.0" cy="304.0" r="2.6" fill="#8FB2E8" opacity="0.25" />
<circle cx="458.0" cy="304.0" r="2.6" fill="#8FB2E8" opacity="0.27" />
<circle cx="476.0" cy="304.0" r="2.7" fill="#8FB2E8" opacity="0.29" />
<circle cx="494.0" cy="304.0" r="2.7" fill="#8FB2E8" opacity="0.29" />
<circle cx="512.0" cy="304.0" r="2.7" fill="#8FB2E8" opacity="0.30" />
<circle cx="530.0" cy="304.0" r="2.7" fill="#8FB2E8" opacity="0.29" />
<circle cx="548.0" cy="304.0" r="2.7" fill="#8FB2E8" opacity="0.29" />
<circle cx="566.0" cy="304.0" r="2.6" fill="#8FB2E8" opacity="0.27" />
<circle cx="584.0" cy="304.0" r="2.6" fill="#8FB2E8" opacity="0.25" />
<circle cx="602.0" cy="304.0" r="2.5" fill="#8FB2E8" opacity="0.22" />
<circle cx="620.0" cy="304.0" r="2.4" fill="#8FB2E8" opacity="0.19" />
<circle cx="638.0" cy="304.0" r="2.3" fill="#8FB2E8" opacity="0.15" />
<circle cx="656.0" cy="304.0" r="2.2" fill="#8FB2E8" opacity="0.10" />
<circle cx="332.0" cy="322.0" r="2.1" fill="#8FB2E8" opacity="0.06" />
<circle cx="350.0" cy="322.0" r="2.3" fill="#8FB2E8" opacity="0.12" />
<circle cx="368.0" cy="322.0" r="2.4" fill="#8FB2E8" opacity="0.18" />
<circle cx="386.0" cy="322.0" r="2.5" fill="#8FB2E8" opacity="0.22" />
<circle cx="404.0" cy="322.0" r="2.6" fill="#8FB2E8" opacity="0.26" />
<circle cx="422.0" cy="322.0" r="2.7" fill="#8FB2E8" opacity="0.30" />
<circle cx="440.0" cy="322.0" r="2.8" fill="#8FB2E8" opacity="0.32" />
<circle cx="458.0" cy="322.0" r="2.8" fill="#8FB2E8" opacity="0.34" />
<circle cx="476.0" cy="322.0" r="2.9" fill="#8FB2E8" opacity="0.36" />
<circle cx="494.0" cy="322.0" r="2.9" fill="#8FB2E8" opacity="0.37" />
<circle cx="512.0" cy="322.0" r="2.9" fill="#8FB2E8" opacity="0.37" />
<circle cx="530.0" cy="322.0" r="2.9" fill="#8FB2E8" opacity="0.37" />
<circle cx="548.0" cy="322.0" r="2.9" fill="#8FB2E8" opacity="0.36" />
<circle cx="566.0" cy="322.0" r="2.8" fill="#8FB2E8" opacity="0.34" />
<circle cx="584.0" cy="322.0" r="2.8" fill="#8FB2E8" opacity="0.32" />
<circle cx="602.0" cy="322.0" r="2.7" fill="#8FB2E8" opacity="0.30" />
<circle cx="620.0" cy="322.0" r="2.6" fill="#8FB2E8" opacity="0.26" />
<circle cx="638.0" cy="322.0" r="2.5" fill="#8FB2E8" opacity="0.22" />
<circle cx="656.0" cy="322.0" r="2.4" fill="#8FB2E8" opacity="0.18" />
<circle cx="674.0" cy="322.0" r="2.3" fill="#8FB2E8" opacity="0.12" />
<circle cx="692.0" cy="322.0" r="2.1" fill="#8FB2E8" opacity="0.06" />
<circle cx="314.0" cy="340.0" r="2.1" fill="#8FB2E8" opacity="0.06" />
<circle cx="332.0" cy="340.0" r="2.3" fill="#8FB2E8" opacity="0.13" />
<circle cx="350.0" cy="340.0" r="2.4" fill="#8FB2E8" opacity="0.19" />
<circle cx="368.0" cy="340.0" r="2.5" fill="#8FB2E8" opacity="0.24" />
<circle cx="386.0" cy="340.0" r="2.7" fill="#8FB2E8" opacity="0.29" />
<circle cx="404.0" cy="340.0" r="2.8" fill="#8FB2E8" opacity="0.33" />
<circle cx="422.0" cy="340.0" r="2.8" fill="#8FB2E8" opacity="0.36" />
<circle cx="440.0" cy="340.0" r="2.9" fill="#8FB2E8" opacity="0.39" />
<circle cx="458.0" cy="340.0" r="3.0" fill="#8FB2E8" opacity="0.41" />
<circle cx="476.0" cy="340.0" r="3.0" fill="#8FB2E8" opacity="0.42" />
<circle cx="494.0" cy="340.0" r="3.0" fill="#8FB2E8" opacity="0.43" />
<circle cx="512.0" cy="340.0" r="3.0" fill="#8FB2E8" opacity="0.44" />
<circle cx="530.0" cy="340.0" r="3.0" fill="#8FB2E8" opacity="0.43" />
<circle cx="548.0" cy="340.0" r="3.0" fill="#8FB2E8" opacity="0.42" />
<circle cx="566.0" cy="340.0" r="3.0" fill="#8FB2E8" opacity="0.41" />
<circle cx="584.0" cy="340.0" r="2.9" fill="#8FB2E8" opacity="0.39" />
<circle cx="602.0" cy="340.0" r="2.8" fill="#8FB2E8" opacity="0.36" />
<circle cx="620.0" cy="340.0" r="2.8" fill="#8FB2E8" opacity="0.33" />
<circle cx="638.0" cy="340.0" r="2.7" fill="#8FB2E8" opacity="0.29" />
<circle cx="656.0" cy="340.0" r="2.5" fill="#8FB2E8" opacity="0.24" />
<circle cx="674.0" cy="340.0" r="2.4" fill="#8FB2E8" opacity="0.19" />
<circle cx="692.0" cy="340.0" r="2.3" fill="#8FB2E8" opacity="0.13" />
<circle cx="710.0" cy="340.0" r="2.1" fill="#8FB2E8" opacity="0.06" />
<circle cx="314.0" cy="358.0" r="2.2" fill="#8FB2E8" opacity="0.12" />
<circle cx="332.0" cy="358.0" r="2.4" fill="#8FB2E8" opacity="0.18" />
<circle cx="350.0" cy="358.0" r="2.5" fill="#8FB2E8" opacity="0.24" />
<circle cx="368.0" cy="358.0" r="2.7" fill="#8FB2E8" opacity="0.29" />
<circle cx="386.0" cy="358.0" r="2.8" fill="#8FB2E8" opacity="0.34" />
<circle cx="404.0" cy="358.0" r="2.9" fill="#8FB2E8" opacity="0.38" />
<circle cx="422.0" cy="358.0" r="3.0" fill="#8FB2E8" opacity="0.41" />
<circle cx="440.0" cy="358.0" r="3.0" fill="#8FB2E8" opacity="0.44" />
<circle cx="458.0" cy="358.0" r="3.1" fill="#8FB2E8" opacity="0.46" />
<circle cx="476.0" cy="358.0" r="3.1" fill="#8FB2E8" opacity="0.48" />
<circle cx="494.0" cy="358.0" r="3.2" fill="#8FB2E8" opacity="0.48" />
<circle cx="512.0" cy="358.0" r="3.2" fill="#8FB2E8" opacity="0.49" />
<circle cx="530.0" cy="358.0" r="3.2" fill="#8FB2E8" opacity="0.48" />
<circle cx="548.0" cy="358.0" r="3.1" fill="#8FB2E8" opacity="0.48" />
<circle cx="566.0" cy="358.0" r="3.1" fill="#8FB2E8" opacity="0.46" />
<circle cx="584.0" cy="358.0" r="3.0" fill="#8FB2E8" opacity="0.44" />
<circle cx="602.0" cy="358.0" r="3.0" fill="#8FB2E8" opacity="0.41" />
<circle cx="620.0" cy="358.0" r="2.9" fill="#8FB2E8" opacity="0.38" />
<circle cx="638.0" cy="358.0" r="2.8" fill="#8FB2E8" opacity="0.34" />
<circle cx="656.0" cy="358.0" r="2.7" fill="#8FB2E8" opacity="0.29" />
<circle cx="674.0" cy="358.0" r="2.5" fill="#8FB2E8" opacity="0.24" />
<circle cx="692.0" cy="358.0" r="2.4" fill="#8FB2E8" opacity="0.18" />
<circle cx="710.0" cy="358.0" r="2.2" fill="#8FB2E8" opacity="0.12" />
<circle cx="296.0" cy="376.0" r="2.2" fill="#8FB2E8" opacity="0.09" />
<circle cx="314.0" cy="376.0" r="2.3" fill="#8FB2E8" opacity="0.16" />
<circle cx="332.0" cy="376.0" r="2.5" fill="#8FB2E8" opacity="0.22" />
<circle cx="350.0" cy="376.0" r="2.6" fill="#8FB2E8" opacity="0.28" />
<circle cx="368.0" cy="376.0" r="2.8" fill="#8FB2E8" opacity="0.33" />
<circle cx="386.0" cy="376.0" r="2.9" fill="#8FB2E8" opacity="0.38" />
<circle cx="404.0" cy="376.0" r="3.0" fill="#8FB2E8" opacity="0.42" />
<circle cx="422.0" cy="376.0" r="3.1" fill="#8FB2E8" opacity="0.45" />
<circle cx="440.0" cy="376.0" r="3.1" fill="#8FB2E8" opacity="0.48" />
<circle cx="458.0" cy="376.0" r="3.2" fill="#8FB2E8" opacity="0.50" />
<circle cx="476.0" cy="376.0" r="3.2" fill="#8FB2E8" opacity="0.52" />
<circle cx="494.0" cy="376.0" r="3.3" fill="#8FB2E8" opacity="0.53" />
<circle cx="512.0" cy="376.0" r="3.3" fill="#8FB2E8" opacity="0.53" />
<circle cx="530.0" cy="376.0" r="3.3" fill="#8FB2E8" opacity="0.53" />
<circle cx="548.0" cy="376.0" r="3.2" fill="#8FB2E8" opacity="0.52" />
<circle cx="566.0" cy="376.0" r="3.2" fill="#8FB2E8" opacity="0.50" />
<circle cx="584.0" cy="376.0" r="3.1" fill="#8FB2E8" opacity="0.48" />
<circle cx="602.0" cy="376.0" r="3.1" fill="#8FB2E8" opacity="0.45" />
<circle cx="620.0" cy="376.0" r="3.0" fill="#8FB2E8" opacity="0.42" />
<circle cx="638.0" cy="376.0" r="2.9" fill="#8FB2E8" opacity="0.38" />
<circle cx="656.0" cy="376.0" r="2.8" fill="#8FB2E8" opacity="0.33" />
<circle cx="674.0" cy="376.0" r="2.6" fill="#8FB2E8" opacity="0.28" />
<circle cx="692.0" cy="376.0" r="2.5" fill="#8FB2E8" opacity="0.22" />
<circle cx="710.0" cy="376.0" r="2.3" fill="#8FB2E8" opacity="0.16" />
<circle cx="728.0" cy="376.0" r="2.2" fill="#8FB2E8" opacity="0.09" />
<circle cx="296.0" cy="394.0" r="2.2" fill="#8FB2E8" opacity="0.11" />
<circle cx="314.0" cy="394.0" r="2.4" fill="#8FB2E8" opacity="0.18" />
<circle cx="332.0" cy="394.0" r="2.6" fill="#8FB2E8" opacity="0.25" />
<circle cx="350.0" cy="394.0" r="2.7" fill="#8FB2E8" opacity="0.31" />
<circle cx="368.0" cy="394.0" r="2.9" fill="#8FB2E8" opacity="0.36" />
<circle cx="386.0" cy="394.0" r="3.0" fill="#8FB2E8" opacity="0.41" />
<circle cx="404.0" cy="394.0" r="3.1" fill="#8FB2E8" opacity="0.45" />
<circle cx="422.0" cy="394.0" r="3.2" fill="#8FB2E8" opacity="0.48" />
<circle cx="440.0" cy="394.0" r="3.2" fill="#8FB2E8" opacity="0.51" />
<circle cx="458.0" cy="394.0" r="3.3" fill="#8FB2E8" opacity="0.53" />
<circle cx="476.0" cy="394.0" r="3.3" fill="#8FB2E8" opacity="0.54" />
<circle cx="494.0" cy="394.0" r="3.3" fill="#8FB2E8" opacity="0.55" />
<circle cx="512.0" cy="394.0" r="3.3" fill="#8FB2E8" opacity="0.56" />
<circle cx="530.0" cy="394.0" r="3.3" fill="#8FB2E8" opacity="0.55" />
<circle cx="548.0" cy="394.0" r="3.3" fill="#8FB2E8" opacity="0.54" />
<circle cx="566.0" cy="394.0" r="3.3" fill="#8FB2E8" opacity="0.53" />
<circle cx="584.0" cy="394.0" r="3.2" fill="#8FB2E8" opacity="0.51" />
<circle cx="602.0" cy="394.0" r="3.2" fill="#8FB2E8" opacity="0.48" />
<circle cx="620.0" cy="394.0" r="3.1" fill="#8FB2E8" opacity="0.45" />
<circle cx="638.0" cy="394.0" r="3.0" fill="#8FB2E8" opacity="0.41" />
<circle cx="656.0" cy="394.0" r="2.9" fill="#8FB2E8" opacity="0.36" />
<circle cx="674.0" cy="394.0" r="2.7" fill="#8FB2E8" opacity="0.31" />
<circle cx="692.0" cy="394.0" r="2.6" fill="#8FB2E8" opacity="0.25" />
<circle cx="710.0" cy="394.0" r="2.4" fill="#8FB2E8" opacity="0.18" />
<circle cx="728.0" cy="394.0" r="2.2" fill="#8FB2E8" opacity="0.11" />
<circle cx="296.0" cy="412.0" r="2.3" fill="#8FB2E8" opacity="0.13" />
<circle cx="314.0" cy="412.0" r="2.5" fill="#8FB2E8" opacity="0.20" />
<circle cx="332.0" cy="412.0" r="2.6" fill="#8FB2E8" opacity="0.27" />
<circle cx="350.0" cy="412.0" r="2.8" fill="#8FB2E8" opacity="0.33" />
<circle cx="368.0" cy="412.0" r="2.9" fill="#8FB2E8" opacity="0.38" />
<circle cx="386.0" cy="412.0" r="3.0" fill="#8FB2E8" opacity="0.42" />
<circle cx="404.0" cy="412.0" r="3.1" fill="#8FB2E8" opacity="0.46" />
<circle cx="422.0" cy="412.0" r="3.2" fill="#8FB2E8" opacity="0.50" />
<circle cx="440.0" cy="412.0" r="3.3" fill="#8FB2E8" opacity="0.53" />
<circle cx="458.0" cy="412.0" r="3.3" fill="#8FB2E8" opacity="0.55" />
<circle cx="476.0" cy="412.0" r="3.4" fill="#8FB2E8" opacity="0.56" />
<circle cx="494.0" cy="412.0" r="3.4" fill="#8FB2E8" opacity="0.57" />
<circle cx="512.0" cy="412.0" r="3.4" fill="#8FB2E8" opacity="0.57" />
<circle cx="530.0" cy="412.0" r="3.4" fill="#8FB2E8" opacity="0.57" />
<circle cx="548.0" cy="412.0" r="3.4" fill="#8FB2E8" opacity="0.56" />
<circle cx="566.0" cy="412.0" r="3.3" fill="#8FB2E8" opacity="0.55" />
<circle cx="584.0" cy="412.0" r="3.3" fill="#8FB2E8" opacity="0.53" />
<circle cx="602.0" cy="412.0" r="3.2" fill="#8FB2E8" opacity="0.50" />
<circle cx="620.0" cy="412.0" r="3.1" fill="#8FB2E8" opacity="0.46" />
<circle cx="638.0" cy="412.0" r="3.0" fill="#8FB2E8" opacity="0.42" />
<circle cx="656.0" cy="412.0" r="2.9" fill="#8FB2E8" opacity="0.38" />
<circle cx="674.0" cy="412.0" r="2.8" fill="#8FB2E8" opacity="0.33" />
<circle cx="692.0" cy="412.0" r="2.6" fill="#8FB2E8" opacity="0.27" />
<circle cx="710.0" cy="412.0" r="2.5" fill="#8FB2E8" opacity="0.20" />
<circle cx="728.0" cy="412.0" r="2.3" fill="#8FB2E8" opacity="0.13" />
<circle cx="278.0" cy="430.0" r="2.1" fill="#8FB2E8" opacity="0.06" />
<circle cx="296.0" cy="430.0" r="2.3" fill="#8FB2E8" opacity="0.14" />
<circle cx="314.0" cy="430.0" r="2.5" fill="#8FB2E8" opacity="0.21" />
<circle cx="332.0" cy="430.0" r="2.6" fill="#8FB2E8" opacity="0.27" />
<circle cx="350.0" cy="430.0" r="2.8" fill="#8FB2E8" opacity="0.33" />
<circle cx="368.0" cy="430.0" r="2.9" fill="#8FB2E8" opacity="0.38" />
<circle cx="386.0" cy="430.0" r="3.0" fill="#8FB2E8" opacity="0.43" />
<circle cx="404.0" cy="430.0" r="3.1" fill="#8FB2E8" opacity="0.47" />
<circle cx="422.0" cy="430.0" r="3.2" fill="#8FB2E8" opacity="0.50" />
<circle cx="440.0" cy="430.0" r="3.3" fill="#8FB2E8" opacity="0.53" />
<circle cx="458.0" cy="430.0" r="3.3" fill="#8FB2E8" opacity="0.55" />
<circle cx="476.0" cy="430.0" r="3.4" fill="#8FB2E8" opacity="0.57" />
<circle cx="494.0" cy="430.0" r="3.4" fill="#8FB2E8" opacity="0.58" />
<circle cx="512.0" cy="430.0" r="3.4" fill="#8FB2E8" opacity="0.58" />
<circle cx="530.0" cy="430.0" r="3.4" fill="#8FB2E8" opacity="0.58" />
<circle cx="548.0" cy="430.0" r="3.4" fill="#8FB2E8" opacity="0.57" />
<circle cx="566.0" cy="430.0" r="3.3" fill="#8FB2E8" opacity="0.55" />
<circle cx="584.0" cy="430.0" r="3.3" fill="#8FB2E8" opacity="0.53" />
<circle cx="602.0" cy="430.0" r="3.2" fill="#8FB2E8" opacity="0.50" />
<circle cx="620.0" cy="430.0" r="3.1" fill="#8FB2E8" opacity="0.47" />
<circle cx="638.0" cy="430.0" r="3.0" fill="#8FB2E8" opacity="0.43" />
<circle cx="656.0" cy="430.0" r="2.9" fill="#8FB2E8" opacity="0.38" />
<circle cx="674.0" cy="430.0" r="2.8" fill="#8FB2E8" opacity="0.33" />
<circle cx="692.0" cy="430.0" r="2.6" fill="#8FB2E8" opacity="0.27" />
<circle cx="710.0" cy="430.0" r="2.5" fill="#8FB2E8" opacity="0.21" />
<circle cx="728.0" cy="430.0" r="2.3" fill="#8FB2E8" opacity="0.14" />
<circle cx="746.0" cy="430.0" r="2.1" fill="#8FB2E8" opacity="0.06" />
<circle cx="296.0" cy="448.0" r="2.3" fill="#8FB2E8" opacity="0.13" />
<circle cx="314.0" cy="448.0" r="2.5" fill="#8FB2E8" opacity="0.20" />
<circle cx="332.0" cy="448.0" r="2.6" fill="#8FB2E8" opacity="0.27" />
<circle cx="350.0" cy="448.0" r="2.8" fill="#8FB2E8" opacity="0.33" />
<circle cx="368.0" cy="448.0" r="2.9" fill="#8FB2E8" opacity="0.38" />
<circle cx="386.0" cy="448.0" r="3.0" fill="#8FB2E8" opacity="0.42" />
<circle cx="404.0" cy="448.0" r="3.1" fill="#8FB2E8" opacity="0.46" />
<circle cx="422.0" cy="448.0" r="3.2" fill="#8FB2E8" opacity="0.50" />
<circle cx="440.0" cy="448.0" r="3.3" fill="#8FB2E8" opacity="0.53" />
<circle cx="458.0" cy="448.0" r="3.3" fill="#8FB2E8" opacity="0.55" />
<circle cx="476.0" cy="448.0" r="3.4" fill="#8FB2E8" opacity="0.56" />
<circle cx="494.0" cy="448.0" r="3.4" fill="#8FB2E8" opacity="0.57" />
<circle cx="512.0" cy="448.0" r="3.4" fill="#8FB2E8" opacity="0.57" />
<circle cx="530.0" cy="448.0" r="3.4" fill="#8FB2E8" opacity="0.57" />
<circle cx="548.0" cy="448.0" r="3.4" fill="#8FB2E8" opacity="0.56" />
<circle cx="566.0" cy="448.0" r="3.3" fill="#8FB2E8" opacity="0.55" />
<circle cx="584.0" cy="448.0" r="3.3" fill="#8FB2E8" opacity="0.53" />
<circle cx="602.0" cy="448.0" r="3.2" fill="#8FB2E8" opacity="0.50" />
<circle cx="620.0" cy="448.0" r="3.1" fill="#8FB2E8" opacity="0.46" />
<circle cx="638.0" cy="448.0" r="3.0" fill="#8FB2E8" opacity="0.42" />
<circle cx="656.0" cy="448.0" r="2.9" fill="#8FB2E8" opacity="0.38" />
<circle cx="674.0" cy="448.0" r="2.8" fill="#8FB2E8" opacity="0.33" />
<circle cx="692.0" cy="448.0" r="2.6" fill="#8FB2E8" opacity="0.27" />
<circle cx="710.0" cy="448.0" r="2.5" fill="#8FB2E8" opacity="0.20" />
<circle cx="728.0" cy="448.0" r="2.3" fill="#8FB2E8" opacity="0.13" />
<circle cx="296.0" cy="466.0" r="2.2" fill="#8FB2E8" opacity="0.11" />
<circle cx="314.0" cy="466.0" r="2.4" fill="#8FB2E8" opacity="0.18" />
<circle cx="332.0" cy="466.0" r="2.6" fill="#8FB2E8" opacity="0.25" />
<circle cx="350.0" cy="466.0" r="2.7" fill="#8FB2E8" opacity="0.31" />
<circle cx="368.0" cy="466.0" r="2.9" fill="#8FB2E8" opacity="0.36" />
<circle cx="386.0" cy="466.0" r="3.0" fill="#8FB2E8" opacity="0.41" />
<circle cx="404.0" cy="466.0" r="3.1" fill="#8FB2E8" opacity="0.45" />
<circle cx="422.0" cy="466.0" r="3.2" fill="#8FB2E8" opacity="0.48" />
<circle cx="440.0" cy="466.0" r="3.2" fill="#8FB2E8" opacity="0.51" />
<circle cx="458.0" cy="466.0" r="3.3" fill="#8FB2E8" opacity="0.53" />
<circle cx="476.0" cy="466.0" r="3.3" fill="#8FB2E8" opacity="0.54" />
<circle cx="494.0" cy="466.0" r="3.3" fill="#8FB2E8" opacity="0.55" />
<circle cx="512.0" cy="466.0" r="3.3" fill="#8FB2E8" opacity="0.56" />
<circle cx="530.0" cy="466.0" r="3.3" fill="#8FB2E8" opacity="0.55" />
<circle cx="548.0" cy="466.0" r="3.3" fill="#8FB2E8" opacity="0.54" />
<circle cx="566.0" cy="466.0" r="3.3" fill="#8FB2E8" opacity="0.53" />
<circle cx="584.0" cy="466.0" r="3.2" fill="#8FB2E8" opacity="0.51" />
<circle cx="602.0" cy="466.0" r="3.2" fill="#8FB2E8" opacity="0.48" />
<circle cx="620.0" cy="466.0" r="3.1" fill="#8FB2E8" opacity="0.45" />
<circle cx="638.0" cy="466.0" r="3.0" fill="#8FB2E8" opacity="0.41" />
<circle cx="656.0" cy="466.0" r="2.9" fill="#8FB2E8" opacity="0.36" />
<circle cx="674.0" cy="466.0" r="2.7" fill="#8FB2E8" opacity="0.31" />
<circle cx="692.0" cy="466.0" r="2.6" fill="#8FB2E8" opacity="0.25" />
<circle cx="710.0" cy="466.0" r="2.4" fill="#8FB2E8" opacity="0.18" />
<circle cx="728.0" cy="466.0" r="2.2" fill="#8FB2E8" opacity="0.11" />
<circle cx="296.0" cy="484.0" r="2.2" fill="#8FB2E8" opacity="0.09" />
<circle cx="314.0" cy="484.0" r="2.3" fill="#8FB2E8" opacity="0.16" />
<circle cx="332.0" cy="484.0" r="2.5" fill="#8FB2E8" opacity="0.22" />
<circle cx="350.0" cy="484.0" r="2.6" fill="#8FB2E8" opacity="0.28" />
<circle cx="368.0" cy="484.0" r="2.8" fill="#8FB2E8" opacity="0.33" />
<circle cx="386.0" cy="484.0" r="2.9" fill="#8FB2E8" opacity="0.38" />
<circle cx="404.0" cy="484.0" r="3.0" fill="#8FB2E8" opacity="0.42" />
<circle cx="422.0" cy="484.0" r="3.1" fill="#8FB2E8" opacity="0.45" />
<circle cx="440.0" cy="484.0" r="3.1" fill="#8FB2E8" opacity="0.48" />
<circle cx="458.0" cy="484.0" r="3.2" fill="#8FB2E8" opacity="0.50" />
<circle cx="476.0" cy="484.0" r="3.2" fill="#8FB2E8" opacity="0.52" />
<circle cx="494.0" cy="484.0" r="3.3" fill="#8FB2E8" opacity="0.53" />
<circle cx="512.0" cy="484.0" r="3.3" fill="#8FB2E8" opacity="0.53" />
<circle cx="530.0" cy="484.0" r="3.3" fill="#8FB2E8" opacity="0.53" />
<circle cx="548.0" cy="484.0" r="3.2" fill="#8FB2E8" opacity="0.52" />
<circle cx="566.0" cy="484.0" r="3.2" fill="#8FB2E8" opacity="0.50" />
<circle cx="584.0" cy="484.0" r="3.1" fill="#8FB2E8" opacity="0.48" />
<circle cx="602.0" cy="484.0" r="3.1" fill="#8FB2E8" opacity="0.45" />
<circle cx="620.0" cy="484.0" r="3.0" fill="#8FB2E8" opacity="0.42" />
<circle cx="638.0" cy="484.0" r="2.9" fill="#8FB2E8" opacity="0.38" />
<circle cx="656.0" cy="484.0" r="2.8" fill="#8FB2E8" opacity="0.33" />
<circle cx="674.0" cy="484.0" r="2.6" fill="#8FB2E8" opacity="0.28" />
<circle cx="692.0" cy="484.0" r="2.5" fill="#8FB2E8" opacity="0.22" />
<circle cx="710.0" cy="484.0" r="2.3" fill="#8FB2E8" opacity="0.16" />
<circle cx="728.0" cy="484.0" r="2.2" fill="#8FB2E8" opacity="0.09" />
<circle cx="314.0" cy="502.0" r="2.2" fill="#8FB2E8" opacity="0.12" />
<circle cx="332.0" cy="502.0" r="2.4" fill="#8FB2E8" opacity="0.18" />
<circle cx="350.0" cy="502.0" r="2.5" fill="#8FB2E8" opacity="0.24" />
<circle cx="368.0" cy="502.0" r="2.7" fill="#8FB2E8" opacity="0.29" />
<circle cx="386.0" cy="502.0" r="2.8" fill="#8FB2E8" opacity="0.34" />
<circle cx="404.0" cy="502.0" r="2.9" fill="#8FB2E8" opacity="0.38" />
<circle cx="422.0" cy="502.0" r="3.0" fill="#8FB2E8" opacity="0.41" />
<circle cx="440.0" cy="502.0" r="3.0" fill="#8FB2E8" opacity="0.44" />
<circle cx="458.0" cy="502.0" r="3.1" fill="#8FB2E8" opacity="0.46" />
<circle cx="476.0" cy="502.0" r="3.1" fill="#8FB2E8" opacity="0.48" />
<circle cx="494.0" cy="502.0" r="3.2" fill="#8FB2E8" opacity="0.48" />
<circle cx="512.0" cy="502.0" r="3.2" fill="#8FB2E8" opacity="0.49" />
<circle cx="530.0" cy="502.0" r="3.2" fill="#8FB2E8" opacity="0.48" />
<circle cx="548.0" cy="502.0" r="3.1" fill="#8FB2E8" opacity="0.48" />
<circle cx="566.0" cy="502.0" r="3.1" fill="#8FB2E8" opacity="0.46" />
<circle cx="584.0" cy="502.0" r="3.0" fill="#8FB2E8" opacity="0.44" />
<circle cx="602.0" cy="502.0" r="3.0" fill="#8FB2E8" opacity="0.41" />
<circle cx="620.0" cy="502.0" r="2.9" fill="#8FB2E8" opacity="0.38" />
<circle cx="638.0" cy="502.0" r="2.8" fill="#8FB2E8" opacity="0.34" />
<circle cx="656.0" cy="502.0" r="2.7" fill="#8FB2E8" opacity="0.29" />
<circle cx="674.0" cy="502.0" r="2.5" fill="#8FB2E8" opacity="0.24" />
<circle cx="692.0" cy="502.0" r="2.4" fill="#8FB2E8" opacity="0.18" />
<circle cx="710.0" cy="502.0" r="2.2" fill="#8FB2E8" opacity="0.12" />
<circle cx="314.0" cy="520.0" r="2.1" fill="#8FB2E8" opacity="0.06" />
<circle cx="332.0" cy="520.0" r="2.3" fill="#8FB2E8" opacity="0.13" />
<circle cx="350.0" cy="520.0" r="2.4" fill="#8FB2E8" opacity="0.19" />
<circle cx="368.0" cy="520.0" r="2.5" fill="#8FB2E8" opacity="0.24" />
<circle cx="386.0" cy="520.0" r="2.7" fill="#8FB2E8" opacity="0.29" />
<circle cx="404.0" cy="520.0" r="2.8" fill="#8FB2E8" opacity="0.33" />
<circle cx="422.0" cy="520.0" r="2.8" fill="#8FB2E8" opacity="0.36" />
<circle cx="440.0" cy="520.0" r="2.9" fill="#8FB2E8" opacity="0.39" />
<circle cx="458.0" cy="520.0" r="3.0" fill="#8FB2E8" opacity="0.41" />
<circle cx="476.0" cy="520.0" r="3.0" fill="#8FB2E8" opacity="0.42" />
<circle cx="494.0" cy="520.0" r="3.0" fill="#8FB2E8" opacity="0.43" />
<circle cx="512.0" cy="520.0" r="3.0" fill="#8FB2E8" opacity="0.44" />
<circle cx="530.0" cy="520.0" r="3.0" fill="#8FB2E8" opacity="0.43" />
<circle cx="548.0" cy="520.0" r="3.0" fill="#8FB2E8" opacity="0.42" />
<circle cx="566.0" cy="520.0" r="3.0" fill="#8FB2E8" opacity="0.41" />
<circle cx="584.0" cy="520.0" r="2.9" fill="#8FB2E8" opacity="0.39" />
<circle cx="602.0" cy="520.0" r="2.8" fill="#8FB2E8" opacity="0.36" />
<circle cx="620.0" cy="520.0" r="2.8" fill="#8FB2E8" opacity="0.33" />
<circle cx="638.0" cy="520.0" r="2.7" fill="#8FB2E8" opacity="0.29" />
<circle cx="656.0" cy="520.0" r="2.5" fill="#8FB2E8" opacity="0.24" />
<circle cx="674.0" cy="520.0" r="2.4" fill="#8FB2E8" opacity="0.19" />
<circle cx="692.0" cy="520.0" r="2.3" fill="#8FB2E8" opacity="0.13" />
<circle cx="710.0" cy="520.0" r="2.1" fill="#8FB2E8" opacity="0.06" />
<circle cx="332.0" cy="538.0" r="2.1" fill="#8FB2E8" opacity="0.06" />
<circle cx="350.0" cy="538.0" r="2.3" fill="#8FB2E8" opacity="0.12" />
<circle cx="368.0" cy="538.0" r="2.4" fill="#8FB2E8" opacity="0.18" />
<circle cx="386.0" cy="538.0" r="2.5" fill="#8FB2E8" opacity="0.22" />
<circle cx="404.0" cy="538.0" r="2.6" fill="#8FB2E8" opacity="0.26" />
<circle cx="422.0" cy="538.0" r="2.7" fill="#8FB2E8" opacity="0.30" />
<circle cx="440.0" cy="538.0" r="2.8" fill="#8FB2E8" opacity="0.32" />
<circle cx="458.0" cy="538.0" r="2.8" fill="#8FB2E8" opacity="0.34" />
<circle cx="476.0" cy="538.0" r="2.9" fill="#8FB2E8" opacity="0.36" />
<circle cx="494.0" cy="538.0" r="2.9" fill="#8FB2E8" opacity="0.37" />
<circle cx="512.0" cy="538.0" r="2.9" fill="#8FB2E8" opacity="0.37" />
<circle cx="530.0" cy="538.0" r="2.9" fill="#8FB2E8" opacity="0.37" />
<circle cx="548.0" cy="538.0" r="2.9" fill="#8FB2E8" opacity="0.36" />
<circle cx="566.0" cy="538.0" r="2.8" fill="#8FB2E8" opacity="0.34" />
<circle cx="584.0" cy="538.0" r="2.8" fill="#8FB2E8" opacity="0.32" />
<circle cx="602.0" cy="538.0" r="2.7" fill="#8FB2E8" opacity="0.30" />
<circle cx="620.0" cy="538.0" r="2.6" fill="#8FB2E8" opacity="0.26" />
<circle cx="638.0" cy="538.0" r="2.5" fill="#8FB2E8" opacity="0.22" />
<circle cx="656.0" cy="538.0" r="2.4" fill="#8FB2E8" opacity="0.18" />
<circle cx="674.0" cy="538.0" r="2.3" fill="#8FB2E8" opacity="0.12" />
<circle cx="692.0" cy="538.0" r="2.1" fill="#8FB2E8" opacity="0.06" />
<circle cx="368.0" cy="556.0" r="2.2" fill="#8FB2E8" opacity="0.10" />
<circle cx="386.0" cy="556.0" r="2.3" fill="#8FB2E8" opacity="0.15" />
<circle cx="404.0" cy="556.0" r="2.4" fill="#8FB2E8" opacity="0.19" />
<circle cx="422.0" cy="556.0" r="2.5" fill="#8FB2E8" opacity="0.22" />
<circle cx="440.0" cy="556.0" r="2.6" fill="#8FB2E8" opacity="0.25" />
<circle cx="458.0" cy="556.0" r="2.6" fill="#8FB2E8" opacity="0.27" />
<circle cx="476.0" cy="556.0" r="2.7" fill="#8FB2E8" opacity="0.29" />
<circle cx="494.0" cy="556.0" r="2.7" fill="#8FB2E8" opacity="0.29" />
<circle cx="512.0" cy="556.0" r="2.7" fill="#8FB2E8" opacity="0.30" />
<circle cx="530.0" cy="556.0" r="2.7" fill="#8FB2E8" opacity="0.29" />
<circle cx="548.0" cy="556.0" r="2.7" fill="#8FB2E8" opacity="0.29" />
<circle cx="566.0" cy="556.0" r="2.6" fill="#8FB2E8" opacity="0.27" />
<circle cx="584.0" cy="556.0" r="2.6" fill="#8FB2E8" opacity="0.25" />
<circle cx="602.0" cy="556.0" r="2.5" fill="#8FB2E8" opacity="0.22" />
<circle cx="620.0" cy="556.0" r="2.4" fill="#8FB2E8" opacity="0.19" />
<circle cx="638.0" cy="556.0" r="2.3" fill="#8FB2E8" opacity="0.15" />
<circle cx="656.0" cy="556.0" r="2.2" fill="#8FB2E8" opacity="0.10" />
<circle cx="386.0" cy="574.0" r="2.1" fill="#8FB2E8" opacity="0.06" />
<circle cx="404.0" cy="574.0" r="2.2" fill="#8FB2E8" opacity="0.10" />
<circle cx="422.0" cy="574.0" r="2.3" fill="#8FB2E8" opacity="0.13" />
<circle cx="440.0" cy="574.0" r="2.4" fill="#8FB2E8" opacity="0.16" />
<circle cx="458.0" cy="574.0" r="2.4" fill="#8FB2E8" opacity="0.18" />
<circle cx="476.0" cy="574.0" r="2.4" fill="#8FB2E8" opacity="0.20" />
<circle cx="494.0" cy="574.0" r="2.5" fill="#8FB2E8" opacity="0.21" />
<circle cx="512.0" cy="574.0" r="2.5" fill="#8FB2E8" opacity="0.21" />
<circle cx="530.0" cy="574.0" r="2.5" fill="#8FB2E8" opacity="0.21" />
<circle cx="548.0" cy="574.0" r="2.4" fill="#8FB2E8" opacity="0.20" />
<circle cx="566.0" cy="574.0" r="2.4" fill="#8FB2E8" opacity="0.18" />
<circle cx="584.0" cy="574.0" r="2.4" fill="#8FB2E8" opacity="0.16" />
<circle cx="602.0" cy="574.0" r="2.3" fill="#8FB2E8" opacity="0.13" />
<circle cx="620.0" cy="574.0" r="2.2" fill="#8FB2E8" opacity="0.10" />
<circle cx="638.0" cy="574.0" r="2.1" fill="#8FB2E8" opacity="0.06" />
<circle cx="440.0" cy="592.0" r="2.1" fill="#8FB2E8" opacity="0.06" />
<circle cx="458.0" cy="592.0" r="2.2" fill="#8FB2E8" opacity="0.09" />
<circle cx="476.0" cy="592.0" r="2.2" fill="#8FB2E8" opacity="0.10" />
<circle cx="494.0" cy="592.0" r="2.2" fill="#8FB2E8" opacity="0.11" />
<circle cx="512.0" cy="592.0" r="2.2" fill="#8FB2E8" opacity="0.11" />
<circle cx="530.0" cy="592.0" r="2.2" fill="#8FB2E8" opacity="0.11" />
<circle cx="548.0" cy="592.0" r="2.2" fill="#8FB2E8" opacity="0.10" />
<circle cx="566.0" cy="592.0" r="2.2" fill="#8FB2E8" opacity="0.09" />
<circle cx="584.0" cy="592.0" r="2.1" fill="#8FB2E8" opacity="0.06" />

  <path d="M 120.0 400.1 L 124.4 403.5 L 128.8 406.9 L 133.1 410.2 L 137.5 413.4 L 141.9 416.5 L 146.3 419.5 L 150.7 422.4 L 155.0 425.1 L 159.4 427.7 L 163.8 430.1 L 168.2 432.4 L 172.6 434.5 L 176.9 436.4 L 181.3 438.1 L 185.7 439.7 L 190.1 441.0 L 194.5 442.2 L 198.8 443.1 L 203.2 443.9 L 207.6 444.4 L 212.0 444.8 L 216.4 445.0 L 220.7 445.0 L 225.1 444.8 L 229.5 444.4 L 233.9 443.8 L 238.3 443.1 L 242.6 442.2 L 247.0 441.2 L 251.4 440.1 L 255.8 438.8 L 260.2 437.4 L 264.5 435.9 L 268.9 434.3 L 273.3 432.7 L 277.7 430.9 L 282.1 429.1 L 286.4 427.3 L 290.8 425.4 L 295.2 423.6 L 299.6 421.7 L 304.0 419.8 L 308.3 417.9 L 312.7 416.0 L 317.1 414.2 L 321.5 412.5 L 325.9 410.7 L 330.2 409.1 L 334.6 407.5 L 339.0 406.0 L 343.4 404.6 L 347.8 403.2 L 352.1 401.9 L 356.5 400.8 L 360.9 399.7 L 365.3 398.7 L 369.7 397.8 L 374.0 397.0 L 378.4 396.3 L 382.8 395.7 L 387.2 395.2 L 391.6 394.7 L 395.9 394.4 L 400.3 394.1 L 404.7 393.8 L 409.1 393.7 L 413.5 393.6 L 417.8 393.5 L 422.2 393.5 L 426.6 393.5 L 431.0 393.5 L 435.4 393.5 L 439.7 393.5 L 444.1 393.6 L 448.5 393.6 L 452.9 393.6 L 457.3 393.5 L 461.6 393.5 L 466.0 393.4 L 470.4 393.2 L 474.8 393.0 L 479.2 392.7 L 483.5 392.4 L 487.9 391.9 L 492.3 391.4 L 496.7 390.9 L 501.1 390.2 L 505.4 389.5 L 509.8 388.7 L 514.2 387.8 L 518.6 386.9 L 522.9 385.8 L 527.3 384.7 L 531.7 383.5 L 536.1 382.3 L 540.5 381.0 L 544.8 379.6 L 549.2 378.3 L 553.6 376.9 L 558.0 375.4 L 562.4 374.0 L 566.7 372.5 L 571.1 371.1 L 575.5 369.7 L 579.9 368.3 L 584.3 367.0 L 588.6 365.7 L 593.0 364.4 L 597.4 363.3 L 601.8 362.2 L 606.2 361.2 L 610.5 360.3 L 614.9 359.5 L 619.3 358.9 L 623.7 358.4 L 628.1 358.0 L 632.4 357.7 L 636.8 357.7 L 641.2 357.7 L 645.6 358.0 L 650.0 358.4 L 654.3 358.9 L 658.7 359.7 L 663.1 360.6 L 667.5 361.7 L 671.9 362.9 L 676.2 364.3 L 680.6 365.9 L 685.0 367.7 L 689.4 369.5 L 693.8 371.6 L 698.1 373.8 L 702.5 376.1 L 706.9 378.5 L 711.3 381.0 L 715.7 383.7 L 720.0 386.4 L 724.4 389.2 L 728.8 392.1 L 733.2 395.0 L 737.6 398.0 L 741.9 400.9 L 746.3 403.9 L 750.7 406.9 L 755.1 409.9 L 759.5 412.8 L 763.8 415.7 L 768.2 418.5 L 772.6 421.2 L 777.0 423.8 L 781.4 426.4 L 785.7 428.8 L 790.1 431.1 L 794.5 433.2 L 798.9 435.2 L 803.3 437.1 L 807.6 438.7 L 812.0 440.2 L 816.4 441.5 L 820.8 442.6 L 825.2 443.6 L 829.5 444.3 L 833.9 444.8 L 838.3 445.1 L 842.7 445.2 L 847.1 445.2 L 851.4 444.9 L 855.8 444.4 L 860.2 443.7 L 864.6 442.8 L 869.0 441.8 L 873.3 440.6 L 877.7 439.2 L 882.1 437.6 L 886.5 436.0 L 890.9 434.1 L 895.2 432.1 L 899.6 430.1 L 904.0 427.9 L 904.0 552.9 L 899.6 553.9 L 895.2 554.8 L 890.9 555.6 L 886.5 556.2 L 882.1 556.6 L 877.7 556.8 L 873.3 556.9 L 869.0 556.8 L 864.6 556.5 L 860.2 555.9 L 855.8 555.2 L 851.4 554.3 L 847.1 553.1 L 842.7 551.8 L 838.3 550.2 L 833.9 548.4 L 829.5 546.4 L 825.2 544.2 L 820.8 541.7 L 816.4 539.1 L 812.0 536.3 L 807.6 533.3 L 803.3 530.1 L 798.9 526.8 L 794.5 523.3 L 790.1 519.6 L 785.7 515.8 L 781.4 511.9 L 777.0 507.9 L 772.6 503.8 L 768.2 499.6 L 763.8 495.3 L 759.5 491.0 L 755.1 486.7 L 750.7 482.3 L 746.3 477.9 L 741.9 473.6 L 737.6 469.3 L 733.2 465.0 L 728.8 460.8 L 724.4 456.6 L 720.0 452.6 L 715.7 448.6 L 711.3 444.8 L 706.9 441.1 L 702.5 437.6 L 698.1 434.2 L 693.8 431.0 L 689.4 427.9 L 685.0 425.1 L 680.6 422.4 L 676.2 420.0 L 671.9 417.7 L 667.5 415.6 L 663.1 413.8 L 658.7 412.1 L 654.3 410.7 L 650.0 409.5 L 645.6 408.5 L 641.2 407.8 L 636.8 407.2 L 632.4 406.8 L 628.1 406.6 L 623.7 406.7 L 619.3 406.9 L 614.9 407.3 L 610.5 407.8 L 606.2 408.5 L 601.8 409.4 L 597.4 410.4 L 593.0 411.5 L 588.6 412.8 L 584.3 414.1 L 579.9 415.6 L 575.5 417.1 L 571.1 418.7 L 566.7 420.4 L 562.4 422.1 L 558.0 423.9 L 553.6 425.7 L 549.2 427.5 L 544.8 429.4 L 540.5 431.2 L 536.1 433.1 L 531.7 434.9 L 527.3 436.7 L 522.9 438.5 L 518.6 440.2 L 514.2 442.0 L 509.8 443.6 L 505.4 445.3 L 501.1 446.9 L 496.7 448.5 L 492.3 450.0 L 487.9 451.5 L 483.5 452.9 L 479.2 454.3 L 474.8 455.6 L 470.4 456.9 L 466.0 458.2 L 461.6 459.4 L 457.3 460.6 L 452.9 461.8 L 448.5 462.9 L 444.1 464.1 L 439.7 465.2 L 435.4 466.4 L 431.0 467.5 L 426.6 468.7 L 422.2 469.9 L 417.8 471.1 L 413.5 472.4 L 409.1 473.7 L 404.7 475.0 L 400.3 476.4 L 395.9 477.8 L 391.6 479.4 L 387.2 480.9 L 382.8 482.6 L 378.4 484.3 L 374.0 486.1 L 369.7 488.0 L 365.3 489.9 L 360.9 492.0 L 356.5 494.1 L 352.1 496.2 L 347.8 498.5 L 343.4 500.8 L 339.0 503.1 L 334.6 505.5 L 330.2 508.0 L 325.9 510.5 L 321.5 513.0 L 317.1 515.6 L 312.7 518.1 L 308.3 520.7 L 304.0 523.3 L 299.6 525.8 L 295.2 528.4 L 290.8 530.8 L 286.4 533.3 L 282.1 535.6 L 277.7 537.9 L 273.3 540.1 L 268.9 542.2 L 264.5 544.2 L 260.2 546.1 L 255.8 547.8 L 251.4 549.4 L 247.0 550.8 L 242.6 552.1 L 238.3 553.2 L 233.9 554.1 L 229.5 554.8 L 225.1 555.3 L 220.7 555.6 L 216.4 555.6 L 212.0 555.5 L 207.6 555.1 L 203.2 554.6 L 198.8 553.8 L 194.5 552.8 L 190.1 551.5 L 185.7 550.1 L 181.3 548.4 L 176.9 546.5 L 172.6 544.4 L 168.2 542.2 L 163.8 539.7 L 159.4 537.0 L 155.0 534.2 L 150.7 531.3 L 146.3 528.1 L 141.9 524.9 L 137.5 521.5 L 133.1 518.0 L 128.8 514.4 L 124.4 510.8 L 120.0 507.1 Z"
        fill="#2F80FF"
        opacity="0.22"/>

  <path d="M 120.0 453.6 L 124.4 457.2 L 128.8 460.7 L 133.1 464.1 L 137.5 467.5 L 141.9 470.7 L 146.3 473.8 L 150.7 476.8 L 155.0 479.7 L 159.4 482.4 L 163.8 484.9 L 168.2 487.3 L 172.6 489.5 L 176.9 491.5 L 181.3 493.3 L 185.7 494.9 L 190.1 496.3 L 194.5 497.5 L 198.8 498.5 L 203.2 499.2 L 207.6 499.8 L 212.0 500.2 L 216.4 500.3 L 220.7 500.3 L 225.1 500.0 L 229.5 499.6 L 233.9 498.9 L 238.3 498.1 L 242.6 497.2 L 247.0 496.0 L 251.4 494.7 L 255.8 493.3 L 260.2 491.8 L 264.5 490.1 L 268.9 488.3 L 273.3 486.4 L 277.7 484.4 L 282.1 482.4 L 286.4 480.3 L 290.8 478.1 L 295.2 476.0 L 299.6 473.8 L 304.0 471.5 L 308.3 469.3 L 312.7 467.1 L 317.1 464.9 L 321.5 462.7 L 325.9 460.6 L 330.2 458.5 L 334.6 456.5 L 339.0 454.5 L 343.4 452.7 L 347.8 450.8 L 352.1 449.1 L 356.5 447.4 L 360.9 445.8 L 365.3 444.3 L 369.7 442.9 L 374.0 441.6 L 378.4 440.3 L 382.8 439.2 L 387.2 438.1 L 391.6 437.1 L 395.9 436.1 L 400.3 435.2 L 404.7 434.4 L 409.1 433.7 L 413.5 433.0 L 417.8 432.3 L 422.2 431.7 L 426.6 431.1 L 431.0 430.5 L 435.4 429.9 L 439.7 429.4 L 444.1 428.8 L 448.5 428.2 L 452.9 427.7 L 457.3 427.1 L 461.6 426.4 L 466.0 425.8 L 470.4 425.0 L 474.8 424.3 L 479.2 423.5 L 483.5 422.6 L 487.9 421.7 L 492.3 420.7 L 496.7 419.7 L 501.1 418.6 L 505.4 417.4 L 509.8 416.2 L 514.2 414.9 L 518.6 413.5 L 522.9 412.2 L 527.3 410.7 L 531.7 409.2 L 536.1 407.7 L 540.5 406.1 L 544.8 404.5 L 549.2 402.9 L 553.6 401.3 L 558.0 399.7 L 562.4 398.1 L 566.7 396.5 L 571.1 394.9 L 575.5 393.4 L 579.9 391.9 L 584.3 390.5 L 588.6 389.2 L 593.0 388.0 L 597.4 386.8 L 601.8 385.8 L 606.2 384.9 L 610.5 384.1 L 614.9 383.4 L 619.3 382.9 L 623.7 382.5 L 628.1 382.3 L 632.4 382.3 L 636.8 382.4 L 641.2 382.7 L 645.6 383.3 L 650.0 383.9 L 654.3 384.8 L 658.7 385.9 L 663.1 387.2 L 667.5 388.6 L 671.9 390.3 L 676.2 392.1 L 680.6 394.2 L 685.0 396.4 L 689.4 398.7 L 693.8 401.3 L 698.1 404.0 L 702.5 406.8 L 706.9 409.8 L 711.3 412.9 L 715.7 416.2 L 720.0 419.5 L 724.4 422.9 L 728.8 426.4 L 733.2 430.0 L 737.6 433.6 L 741.9 437.3 L 746.3 440.9 L 750.7 444.6 L 755.1 448.3 L 759.5 451.9 L 763.8 455.5 L 768.2 459.0 L 772.6 462.5 L 777.0 465.9 L 781.4 469.1 L 785.7 472.3 L 790.1 475.3 L 794.5 478.3 L 798.9 481.0 L 803.3 483.6 L 807.6 486.0 L 812.0 488.3 L 816.4 490.3 L 820.8 492.2 L 825.2 493.9 L 829.5 495.3 L 833.9 496.6 L 838.3 497.7 L 842.7 498.5 L 847.1 499.1 L 851.4 499.6 L 855.8 499.8 L 860.2 499.8 L 864.6 499.7 L 869.0 499.3 L 873.3 498.7 L 877.7 498.0 L 882.1 497.1 L 886.5 496.1 L 890.9 494.8 L 895.2 493.5 L 899.6 492.0 L 904.0 490.4"
        fill="none"
        stroke="#2F80FF"
        stroke-width="6"
        stroke-linecap="round"
        stroke-linejoin="round"
        filter="url(#softGlow)"/>

  <circle cx="120.0" cy="453.6" r="8.5" fill="#2F80FF" opacity="0.52"/>
<circle cx="238.3" cy="507.1" r="8.5" fill="#2F80FF" opacity="0.52"/>
<circle cx="369.7" cy="435.9" r="8.5" fill="#2F80FF" opacity="0.52"/>
<circle cx="505.4" cy="423.4" r="8.5" fill="#2F80FF" opacity="0.52"/>
<circle cx="641.2" cy="373.7" r="8.5" fill="#2F80FF" opacity="0.52"/>
<circle cx="777.0" cy="472.9" r="8.5" fill="#2F80FF" opacity="0.52"/>
<circle cx="904.0" cy="490.4" r="8.5" fill="#2F80FF" opacity="0.52"/>

  <path d="M 120.0 456.2 L 124.4 455.7 L 128.8 454.9 L 133.1 454.0 L 137.5 452.8 L 141.9 451.6 L 146.3 450.2 L 150.7 448.6 L 155.0 446.9 L 159.4 445.0 L 163.8 443.0 L 168.2 440.9 L 172.6 438.7 L 176.9 436.4 L 181.3 434.1 L 185.7 431.6 L 190.1 429.1 L 194.5 426.6 L 198.8 424.0 L 203.2 421.4 L 207.6 418.8 L 212.0 416.2 L 216.4 413.7 L 220.7 411.2 L 225.1 408.7 L 229.5 406.3 L 233.9 404.0 L 238.3 401.8 L 242.6 399.7 L 247.0 397.7 L 251.4 395.8 L 255.8 394.1 L 260.2 392.5 L 264.5 391.0 L 268.9 389.7 L 273.3 388.6 L 277.7 387.6 L 282.1 386.8 L 286.4 386.2 L 290.8 385.7 L 295.2 385.4 L 299.6 385.3 L 304.0 385.4 L 308.3 385.6 L 312.7 386.1 L 317.1 386.6 L 321.5 387.4 L 325.9 388.2 L 330.2 389.3 L 334.6 390.4 L 339.0 391.7 L 343.4 393.1 L 347.8 394.6 L 352.1 396.2 L 356.5 397.9 L 360.9 399.7 L 365.3 401.5 L 369.7 403.4 L 374.0 405.3 L 378.4 407.2 L 382.8 409.2 L 387.2 411.2 L 391.6 413.1 L 395.9 415.1 L 400.3 417.0 L 404.7 418.9 L 409.1 420.7 L 413.5 422.5 L 417.8 424.2 L 422.2 425.9 L 426.6 427.5 L 431.0 428.9 L 435.4 430.4 L 439.7 431.7 L 444.1 432.9 L 448.5 434.0 L 452.9 435.0 L 457.3 435.9 L 461.6 436.7 L 466.0 437.4 L 470.4 438.1 L 474.8 438.6 L 479.2 439.0 L 483.5 439.4 L 487.9 439.6 L 492.3 439.8 L 496.7 440.0 L 501.1 440.0 L 505.4 440.0 L 509.8 440.0 L 514.2 439.9 L 518.6 439.7 L 522.9 439.6 L 527.3 439.4 L 531.7 439.2 L 536.1 439.1 L 540.5 438.9 L 544.8 438.8 L 549.2 438.7 L 553.6 438.6 L 558.0 438.6 L 562.4 438.6 L 566.7 438.7 L 571.1 438.9 L 575.5 439.1 L 579.9 439.4 L 584.3 439.8 L 588.6 440.3 L 593.0 440.8 L 597.4 441.5 L 601.8 442.2 L 606.2 443.0 L 610.5 443.9 L 614.9 444.8 L 619.3 445.9 L 623.7 447.0 L 628.1 448.1 L 632.4 449.4 L 636.8 450.6 L 641.2 452.0 L 645.6 453.3 L 650.0 454.7 L 654.3 456.1 L 658.7 457.5 L 663.1 458.9 L 667.5 460.3 L 671.9 461.7 L 676.2 463.1 L 680.6 464.4 L 685.0 465.6 L 689.4 466.8 L 693.8 467.9 L 698.1 468.9 L 702.5 469.8 L 706.9 470.5 L 711.3 471.2 L 715.7 471.7 L 720.0 472.1 L 724.4 472.4 L 728.8 472.5 L 733.2 472.4 L 737.6 472.2 L 741.9 471.7 L 746.3 471.2 L 750.7 470.4 L 755.1 469.5 L 759.5 468.3 L 763.8 467.0 L 768.2 465.6 L 772.6 463.9 L 777.0 462.1 L 781.4 460.1 L 785.7 458.0 L 790.1 455.7 L 794.5 453.2 L 798.9 450.6 L 803.3 447.9 L 807.6 445.1 L 812.0 442.1 L 816.4 439.1 L 820.8 435.9 L 825.2 432.8 L 829.5 429.5 L 833.9 426.2 L 838.3 422.9 L 842.7 419.5 L 847.1 416.2 L 851.4 412.9 L 855.8 409.5 L 860.2 406.3 L 864.6 403.1 L 869.0 399.9 L 873.3 396.9 L 877.7 393.9 L 882.1 391.0 L 886.5 388.3 L 890.9 385.6 L 895.2 383.1 L 899.6 380.8 L 904.0 378.6 L 904.0 500.1 L 899.6 502.3 L 895.2 504.6 L 890.9 507.0 L 886.5 509.5 L 882.1 512.1 L 877.7 514.8 L 873.3 517.6 L 869.0 520.4 L 864.6 523.3 L 860.2 526.3 L 855.8 529.2 L 851.4 532.2 L 847.1 535.1 L 842.7 538.1 L 838.3 541.0 L 833.9 543.8 L 829.5 546.6 L 825.2 549.3 L 820.8 551.9 L 816.4 554.5 L 812.0 556.9 L 807.6 559.1 L 803.3 561.3 L 798.9 563.2 L 794.5 565.1 L 790.1 566.7 L 785.7 568.2 L 781.4 569.5 L 777.0 570.5 L 772.6 571.4 L 768.2 572.1 L 763.8 572.6 L 759.5 572.9 L 755.1 573.0 L 750.7 572.9 L 746.3 572.5 L 741.9 572.0 L 737.6 571.3 L 733.2 570.4 L 728.8 569.3 L 724.4 568.0 L 720.0 566.5 L 715.7 564.9 L 711.3 563.1 L 706.9 561.2 L 702.5 559.1 L 698.1 557.0 L 693.8 554.7 L 689.4 552.3 L 685.0 549.8 L 680.6 547.3 L 676.2 544.6 L 671.9 542.0 L 667.5 539.3 L 663.1 536.6 L 658.7 533.8 L 654.3 531.1 L 650.0 528.4 L 645.6 525.7 L 641.2 523.1 L 636.8 520.5 L 632.4 517.9 L 628.1 515.5 L 623.7 513.1 L 619.3 510.8 L 614.9 508.5 L 610.5 506.4 L 606.2 504.4 L 601.8 502.5 L 597.4 500.6 L 593.0 498.9 L 588.6 497.3 L 584.3 495.9 L 579.9 494.5 L 575.5 493.2 L 571.1 492.1 L 566.7 491.1 L 562.4 490.1 L 558.0 489.3 L 553.6 488.5 L 549.2 487.9 L 544.8 487.3 L 540.5 486.8 L 536.1 486.4 L 531.7 486.0 L 527.3 485.7 L 522.9 485.4 L 518.6 485.2 L 514.2 485.0 L 509.8 484.8 L 505.4 484.6 L 501.1 484.5 L 496.7 484.3 L 492.3 484.2 L 487.9 484.0 L 483.5 483.8 L 479.2 483.6 L 474.8 483.3 L 470.4 483.0 L 466.0 482.6 L 461.6 482.2 L 457.3 481.8 L 452.9 481.3 L 448.5 480.7 L 444.1 480.1 L 439.7 479.4 L 435.4 478.7 L 431.0 478.0 L 426.6 477.1 L 422.2 476.3 L 417.8 475.4 L 413.5 474.5 L 409.1 473.6 L 404.7 472.6 L 400.3 471.7 L 395.9 470.7 L 391.6 469.7 L 387.2 468.8 L 382.8 467.9 L 378.4 467.0 L 374.0 466.2 L 369.7 465.4 L 365.3 464.7 L 360.9 464.1 L 356.5 463.6 L 352.1 463.1 L 347.8 462.8 L 343.4 462.6 L 339.0 462.5 L 334.6 462.6 L 330.2 462.7 L 325.9 463.1 L 321.5 463.6 L 317.1 464.2 L 312.7 465.1 L 308.3 466.0 L 304.0 467.2 L 299.6 468.5 L 295.2 470.0 L 290.8 471.7 L 286.4 473.6 L 282.1 475.6 L 277.7 477.8 L 273.3 480.2 L 268.9 482.7 L 264.5 485.4 L 260.2 488.2 L 255.8 491.2 L 251.4 494.3 L 247.0 497.5 L 242.6 500.8 L 238.3 504.2 L 233.9 507.8 L 229.5 511.3 L 225.1 515.0 L 220.7 518.6 L 216.4 522.3 L 212.0 526.1 L 207.6 529.8 L 203.2 533.5 L 198.8 537.2 L 194.5 540.8 L 190.1 544.4 L 185.7 547.9 L 181.3 551.3 L 176.9 554.7 L 172.6 557.9 L 168.2 561.0 L 163.8 563.9 L 159.4 566.7 L 155.0 569.3 L 150.7 571.8 L 146.3 574.1 L 141.9 576.2 L 137.5 578.1 L 133.1 579.9 L 128.8 581.4 L 124.4 582.7 L 120.0 583.8 Z"
        fill="#18D7D7"
        opacity="0.22"/>

  <path d="M 120.0 520.0 L 124.4 519.2 L 128.8 518.1 L 133.1 516.9 L 137.5 515.5 L 141.9 513.9 L 146.3 512.1 L 150.7 510.2 L 155.0 508.1 L 159.4 505.9 L 163.8 503.5 L 168.2 500.9 L 172.6 498.3 L 176.9 495.6 L 181.3 492.7 L 185.7 489.8 L 190.1 486.8 L 194.5 483.7 L 198.8 480.6 L 203.2 477.5 L 207.6 474.3 L 212.0 471.2 L 216.4 468.0 L 220.7 464.9 L 225.1 461.8 L 229.5 458.8 L 233.9 455.9 L 238.3 453.0 L 242.6 450.3 L 247.0 447.6 L 251.4 445.1 L 255.8 442.6 L 260.2 440.3 L 264.5 438.2 L 268.9 436.2 L 273.3 434.4 L 277.7 432.7 L 282.1 431.2 L 286.4 429.9 L 290.8 428.7 L 295.2 427.7 L 299.6 426.9 L 304.0 426.3 L 308.3 425.8 L 312.7 425.6 L 317.1 425.4 L 321.5 425.5 L 325.9 425.7 L 330.2 426.0 L 334.6 426.5 L 339.0 427.1 L 343.4 427.8 L 347.8 428.7 L 352.1 429.7 L 356.5 430.7 L 360.9 431.9 L 365.3 433.1 L 369.7 434.4 L 374.0 435.7 L 378.4 437.1 L 382.8 438.5 L 387.2 440.0 L 391.6 441.4 L 395.9 442.9 L 400.3 444.3 L 404.7 445.8 L 409.1 447.2 L 413.5 448.5 L 417.8 449.8 L 422.2 451.1 L 426.6 452.3 L 431.0 453.5 L 435.4 454.5 L 439.7 455.5 L 444.1 456.5 L 448.5 457.3 L 452.9 458.1 L 457.3 458.8 L 461.6 459.5 L 466.0 460.0 L 470.4 460.5 L 474.8 460.9 L 479.2 461.3 L 483.5 461.6 L 487.9 461.8 L 492.3 462.0 L 496.7 462.1 L 501.1 462.3 L 505.4 462.3 L 509.8 462.4 L 514.2 462.4 L 518.6 462.5 L 522.9 462.5 L 527.3 462.6 L 531.7 462.6 L 536.1 462.7 L 540.5 462.9 L 544.8 463.1 L 549.2 463.3 L 553.6 463.6 L 558.0 463.9 L 562.4 464.4 L 566.7 464.9 L 571.1 465.5 L 575.5 466.2 L 579.9 467.0 L 584.3 467.8 L 588.6 468.8 L 593.0 469.9 L 597.4 471.1 L 601.8 472.3 L 606.2 473.7 L 610.5 475.1 L 614.9 476.7 L 619.3 478.3 L 623.7 480.0 L 628.1 481.8 L 632.4 483.7 L 636.8 485.6 L 641.2 487.5 L 645.6 489.5 L 650.0 491.6 L 654.3 493.6 L 658.7 495.7 L 663.1 497.8 L 667.5 499.8 L 671.9 501.9 L 676.2 503.9 L 680.6 505.8 L 685.0 507.7 L 689.4 509.5 L 693.8 511.3 L 698.1 512.9 L 702.5 514.4 L 706.9 515.9 L 711.3 517.2 L 715.7 518.3 L 720.0 519.3 L 724.4 520.2 L 728.8 520.9 L 733.2 521.4 L 737.6 521.7 L 741.9 521.9 L 746.3 521.9 L 750.7 521.6 L 755.1 521.2 L 759.5 520.6 L 763.8 519.8 L 768.2 518.9 L 772.6 517.7 L 777.0 516.3 L 781.4 514.8 L 785.7 513.1 L 790.1 511.2 L 794.5 509.1 L 798.9 506.9 L 803.3 504.6 L 807.6 502.1 L 812.0 499.5 L 816.4 496.8 L 820.8 493.9 L 825.2 491.0 L 829.5 488.1 L 833.9 485.0 L 838.3 481.9 L 842.7 478.8 L 847.1 475.7 L 851.4 472.5 L 855.8 469.4 L 860.2 466.3 L 864.6 463.2 L 869.0 460.2 L 873.3 457.2 L 877.7 454.3 L 882.1 451.6 L 886.5 448.9 L 890.9 446.3 L 895.2 443.8 L 899.6 441.5 L 904.0 439.4"
        fill="none"
        stroke="#18D7D7"
        stroke-width="6"
        stroke-linecap="round"
        stroke-linejoin="round"
        filter="url(#softGlow)"/>

  <circle cx="120.0" cy="522.0" r="8.5" fill="#18D7D7" opacity="0.52"/>
<circle cx="238.3" cy="464.0" r="8.5" fill="#18D7D7" opacity="0.52"/>
<circle cx="369.7" cy="429.4" r="8.5" fill="#18D7D7" opacity="0.52"/>
<circle cx="505.4" cy="470.3" r="8.5" fill="#18D7D7" opacity="0.52"/>
<circle cx="641.2" cy="480.5" r="8.5" fill="#18D7D7" opacity="0.52"/>
<circle cx="777.0" cy="525.3" r="8.5" fill="#18D7D7" opacity="0.52"/>
<circle cx="904.0" cy="441.4" r="8.5" fill="#18D7D7" opacity="0.52"/>

  <path d="M 120.0 421.9 L 124.4 420.0 L 128.8 418.2 L 133.1 416.5 L 137.5 414.8 L 141.9 413.1 L 146.3 411.6 L 150.7 410.1 L 155.0 408.8 L 159.4 407.6 L 163.8 406.5 L 168.2 405.5 L 172.6 404.7 L 176.9 404.1 L 181.3 403.6 L 185.7 403.3 L 190.1 403.1 L 194.5 403.2 L 198.8 403.4 L 203.2 403.9 L 207.6 404.5 L 212.0 405.3 L 216.4 406.4 L 220.7 407.6 L 225.1 409.0 L 229.5 410.6 L 233.9 412.4 L 238.3 414.4 L 242.6 416.6 L 247.0 418.9 L 251.4 421.4 L 255.8 424.0 L 260.2 426.8 L 264.5 429.7 L 268.9 432.8 L 273.3 435.9 L 277.7 439.1 L 282.1 442.4 L 286.4 445.8 L 290.8 449.2 L 295.2 452.7 L 299.6 456.2 L 304.0 459.7 L 308.3 463.2 L 312.7 466.6 L 317.1 470.1 L 321.5 473.5 L 325.9 476.8 L 330.2 480.1 L 334.6 483.2 L 339.0 486.3 L 343.4 489.2 L 347.8 492.1 L 352.1 494.8 L 356.5 497.3 L 360.9 499.8 L 365.3 502.0 L 369.7 504.1 L 374.0 506.0 L 378.4 507.8 L 382.8 509.4 L 387.2 510.8 L 391.6 512.0 L 395.9 513.0 L 400.3 513.9 L 404.7 514.6 L 409.1 515.1 L 413.5 515.5 L 417.8 515.7 L 422.2 515.7 L 426.6 515.6 L 431.0 515.4 L 435.4 515.0 L 439.7 514.5 L 444.1 513.9 L 448.5 513.1 L 452.9 512.3 L 457.3 511.4 L 461.6 510.4 L 466.0 509.3 L 470.4 508.2 L 474.8 507.0 L 479.2 505.8 L 483.5 504.5 L 487.9 503.3 L 492.3 502.0 L 496.7 500.8 L 501.1 499.5 L 505.4 498.3 L 509.8 497.0 L 514.2 495.9 L 518.6 494.7 L 522.9 493.6 L 527.3 492.5 L 531.7 491.5 L 536.1 490.5 L 540.5 489.6 L 544.8 488.7 L 549.2 487.9 L 553.6 487.2 L 558.0 486.5 L 562.4 485.9 L 566.7 485.3 L 571.1 484.8 L 575.5 484.3 L 579.9 483.9 L 584.3 483.5 L 588.6 483.1 L 593.0 482.7 L 597.4 482.4 L 601.8 482.1 L 606.2 481.7 L 610.5 481.4 L 614.9 481.0 L 619.3 480.7 L 623.7 480.2 L 628.1 479.8 L 632.4 479.3 L 636.8 478.7 L 641.2 478.1 L 645.6 477.4 L 650.0 476.6 L 654.3 475.8 L 658.7 474.8 L 663.1 473.8 L 667.5 472.7 L 671.9 471.4 L 676.2 470.1 L 680.6 468.6 L 685.0 467.1 L 689.4 465.5 L 693.8 463.7 L 698.1 461.9 L 702.5 459.9 L 706.9 457.9 L 711.3 455.7 L 715.7 453.5 L 720.0 451.2 L 724.4 448.8 L 728.8 446.4 L 733.2 443.9 L 737.6 441.4 L 741.9 438.9 L 746.3 436.3 L 750.7 433.7 L 755.1 431.1 L 759.5 428.5 L 763.8 426.0 L 768.2 423.5 L 772.6 421.0 L 777.0 418.6 L 781.4 416.3 L 785.7 414.0 L 790.1 411.9 L 794.5 409.9 L 798.9 408.0 L 803.3 406.2 L 807.6 404.6 L 812.0 403.1 L 816.4 401.8 L 820.8 400.7 L 825.2 399.8 L 829.5 399.0 L 833.9 398.4 L 838.3 398.1 L 842.7 397.9 L 847.1 397.9 L 851.4 398.2 L 855.8 398.6 L 860.2 399.2 L 864.6 400.1 L 869.0 401.1 L 873.3 402.4 L 877.7 403.8 L 882.1 405.4 L 886.5 407.2 L 890.9 409.2 L 895.2 411.3 L 899.6 413.6 L 904.0 416.0 L 904.0 504.7 L 899.6 502.4 L 895.2 500.2 L 890.9 498.2 L 886.5 496.4 L 882.1 494.8 L 877.7 493.4 L 873.3 492.2 L 869.0 491.2 L 864.6 490.4 L 860.2 489.9 L 855.8 489.5 L 851.4 489.4 L 847.1 489.5 L 842.7 489.8 L 838.3 490.4 L 833.9 491.1 L 829.5 492.0 L 825.2 493.2 L 820.8 494.5 L 816.4 496.0 L 812.0 497.7 L 807.6 499.6 L 803.3 501.6 L 798.9 503.7 L 794.5 506.0 L 790.1 508.4 L 785.7 510.9 L 781.4 513.5 L 777.0 516.2 L 772.6 518.9 L 768.2 521.7 L 763.8 524.5 L 759.5 527.3 L 755.1 530.2 L 750.7 533.0 L 746.3 535.9 L 741.9 538.7 L 737.6 541.4 L 733.2 544.1 L 728.8 546.7 L 724.4 549.3 L 720.0 551.7 L 715.7 554.1 L 711.3 556.3 L 706.9 558.5 L 702.5 560.5 L 698.1 562.4 L 693.8 564.2 L 689.4 565.8 L 685.0 567.4 L 680.6 568.7 L 676.2 570.0 L 671.9 571.1 L 667.5 572.1 L 663.1 572.9 L 658.7 573.6 L 654.3 574.2 L 650.0 574.6 L 645.6 575.0 L 641.2 575.2 L 636.8 575.4 L 632.4 575.4 L 628.1 575.4 L 623.7 575.3 L 619.3 575.1 L 614.9 574.8 L 610.5 574.5 L 606.2 574.2 L 601.8 573.8 L 597.4 573.4 L 593.0 573.0 L 588.6 572.5 L 584.3 572.1 L 579.9 571.7 L 575.5 571.2 L 571.1 570.9 L 566.7 570.5 L 562.4 570.2 L 558.0 569.9 L 553.6 569.6 L 549.2 569.4 L 544.8 569.2 L 540.5 569.1 L 536.1 569.1 L 531.7 569.1 L 527.3 569.1 L 522.9 569.2 L 518.6 569.4 L 514.2 569.6 L 509.8 569.8 L 505.4 570.1 L 501.1 570.4 L 496.7 570.8 L 492.3 571.2 L 487.9 571.5 L 483.5 571.9 L 479.2 572.3 L 474.8 572.7 L 470.4 573.1 L 466.0 573.4 L 461.6 573.7 L 457.3 573.9 L 452.9 574.1 L 448.5 574.2 L 444.1 574.2 L 439.7 574.2 L 435.4 574.0 L 431.0 573.8 L 426.6 573.4 L 422.2 573.0 L 417.8 572.4 L 413.5 571.7 L 409.1 570.9 L 404.7 569.9 L 400.3 568.8 L 395.9 567.6 L 391.6 566.2 L 387.2 564.7 L 382.8 563.0 L 378.4 561.2 L 374.0 559.3 L 369.7 557.2 L 365.3 555.0 L 360.9 552.7 L 356.5 550.3 L 352.1 547.8 L 347.8 545.2 L 343.4 542.5 L 339.0 539.7 L 334.6 536.9 L 330.2 534.0 L 325.9 531.0 L 321.5 528.1 L 317.1 525.1 L 312.7 522.1 L 308.3 519.1 L 304.0 516.1 L 299.6 513.2 L 295.2 510.4 L 290.8 507.6 L 286.4 504.9 L 282.1 502.2 L 277.7 499.7 L 273.3 497.4 L 268.9 495.1 L 264.5 493.0 L 260.2 491.1 L 255.8 489.3 L 251.4 487.7 L 247.0 486.3 L 242.6 485.1 L 238.3 484.1 L 233.9 483.3 L 229.5 482.8 L 225.1 482.4 L 220.7 482.3 L 216.4 482.4 L 212.0 482.7 L 207.6 483.3 L 203.2 484.0 L 198.8 485.0 L 194.5 486.2 L 190.1 487.7 L 185.7 489.3 L 181.3 491.1 L 176.9 493.1 L 172.6 495.3 L 168.2 497.7 L 163.8 500.3 L 159.4 502.9 L 155.0 505.8 L 150.7 508.7 L 146.3 511.8 L 141.9 515.0 L 137.5 518.2 L 133.1 521.6 L 128.8 525.0 L 124.4 528.4 L 120.0 531.9 Z"
        fill="#9B5CFF"
        opacity="0.22"/>

  <path d="M 120.0 476.9 L 124.4 474.2 L 128.8 471.6 L 133.1 469.0 L 137.5 466.5 L 141.9 464.1 L 146.3 461.7 L 150.7 459.4 L 155.0 457.3 L 159.4 455.3 L 163.8 453.4 L 168.2 451.6 L 172.6 450.0 L 176.9 448.6 L 181.3 447.3 L 185.7 446.3 L 190.1 445.4 L 194.5 444.7 L 198.8 444.2 L 203.2 444.0 L 207.6 443.9 L 212.0 444.0 L 216.4 444.4 L 220.7 444.9 L 225.1 445.7 L 229.5 446.7 L 233.9 447.9 L 238.3 449.3 L 242.6 450.8 L 247.0 452.6 L 251.4 454.6 L 255.8 456.7 L 260.2 458.9 L 264.5 461.4 L 268.9 463.9 L 273.3 466.6 L 277.7 469.4 L 282.1 472.3 L 286.4 475.3 L 290.8 478.4 L 295.2 481.5 L 299.6 484.7 L 304.0 487.9 L 308.3 491.1 L 312.7 494.4 L 317.1 497.6 L 321.5 500.8 L 325.9 503.9 L 330.2 507.0 L 334.6 510.0 L 339.0 513.0 L 343.4 515.9 L 347.8 518.6 L 352.1 521.3 L 356.5 523.8 L 360.9 526.2 L 365.3 528.5 L 369.7 530.7 L 374.0 532.7 L 378.4 534.5 L 382.8 536.2 L 387.2 537.7 L 391.6 539.1 L 395.9 540.3 L 400.3 541.4 L 404.7 542.3 L 409.1 543.0 L 413.5 543.6 L 417.8 544.1 L 422.2 544.4 L 426.6 544.5 L 431.0 544.6 L 435.4 544.5 L 439.7 544.3 L 444.1 544.0 L 448.5 543.7 L 452.9 543.2 L 457.3 542.6 L 461.6 542.0 L 466.0 541.3 L 470.4 540.6 L 474.8 539.8 L 479.2 539.1 L 483.5 538.2 L 487.9 537.4 L 492.3 536.6 L 496.7 535.8 L 501.1 535.0 L 505.4 534.2 L 509.8 533.4 L 514.2 532.7 L 518.6 532.0 L 522.9 531.4 L 527.3 530.8 L 531.7 530.3 L 536.1 529.8 L 540.5 529.4 L 544.8 529.0 L 549.2 528.7 L 553.6 528.4 L 558.0 528.2 L 562.4 528.0 L 566.7 527.9 L 571.1 527.8 L 575.5 527.8 L 579.9 527.8 L 584.3 527.8 L 588.6 527.8 L 593.0 527.8 L 597.4 527.9 L 601.8 527.9 L 606.2 528.0 L 610.5 528.0 L 614.9 527.9 L 619.3 527.9 L 623.7 527.8 L 628.1 527.6 L 632.4 527.4 L 636.8 527.0 L 641.2 526.7 L 645.6 526.2 L 650.0 525.6 L 654.3 525.0 L 658.7 524.2 L 663.1 523.3 L 667.5 522.4 L 671.9 521.3 L 676.2 520.0 L 680.6 518.7 L 685.0 517.2 L 689.4 515.7 L 693.8 514.0 L 698.1 512.1 L 702.5 510.2 L 706.9 508.2 L 711.3 506.0 L 715.7 503.8 L 720.0 501.5 L 724.4 499.1 L 728.8 496.6 L 733.2 494.0 L 737.6 491.4 L 741.9 488.8 L 746.3 486.1 L 750.7 483.4 L 755.1 480.6 L 759.5 477.9 L 763.8 475.2 L 768.2 472.6 L 772.6 470.0 L 777.0 467.4 L 781.4 464.9 L 785.7 462.5 L 790.1 460.2 L 794.5 457.9 L 798.9 455.9 L 803.3 453.9 L 807.6 452.1 L 812.0 450.4 L 816.4 448.9 L 820.8 447.6 L 825.2 446.5 L 829.5 445.5 L 833.9 444.8 L 838.3 444.2 L 842.7 443.9 L 847.1 443.7 L 851.4 443.8 L 855.8 444.1 L 860.2 444.6 L 864.6 445.3 L 869.0 446.2 L 873.3 447.3 L 877.7 448.6 L 882.1 450.1 L 886.5 451.8 L 890.9 453.7 L 895.2 455.7 L 899.6 458.0 L 904.0 460.3"
        fill="none"
        stroke="#9B5CFF"
        stroke-width="6"
        stroke-linecap="round"
        stroke-linejoin="round"
        filter="url(#softGlow)"/>

  <circle cx="120.0" cy="474.9" r="8.5" fill="#9B5CFF" opacity="0.52"/>
<circle cx="238.3" cy="456.3" r="8.5" fill="#9B5CFF" opacity="0.52"/>
<circle cx="369.7" cy="521.7" r="8.5" fill="#9B5CFF" opacity="0.52"/>
<circle cx="505.4" cy="538.2" r="8.5" fill="#9B5CFF" opacity="0.52"/>
<circle cx="641.2" cy="515.7" r="8.5" fill="#9B5CFF" opacity="0.52"/>
<circle cx="777.0" cy="472.4" r="8.5" fill="#9B5CFF" opacity="0.52"/>
<circle cx="904.0" cy="458.3" r="8.5" fill="#9B5CFF" opacity="0.52"/>

  <text x="512" y="790"
        font-family="Inter, Avenir Next, Helvetica, Arial, sans-serif"
        font-size="140"
        font-weight="500"
        letter-spacing="-3"
        text-anchor="middle"
        fill="url(#gpText)">mooGP</text>

  <metadata>
    Palette: Core mooGP / Scientific Blue
    Generated by generate_moogp_logo.py
  </metadata>
</svg>
